<svg width="498" height="446" viewBox="0 0 498 446" fill="none" xmlns="http://www.w3.org/2000/svg">
<g clip-path="url(#clip0_76_48)">
<path d="M0 178.435C56.3651 154.105 114.832 142.832 172.889 123.964C228.239 105.975 283.068 86.1525 336.699 63.5711C379.798 45.4242 422.393 27.2367 464.194 6.33628C496.031 -9.58229 495.989 5.99159 492.219 36.3352C486.979 78.5169 471.387 119.298 463.405 161.068C453.138 214.789 435.681 265.51 415.248 316.194C405.075 341.429 387.161 365.892 380.908 392.375C376.303 411.877 367.497 427.36 355.645 443.689C347.672 454.675 345.272 426.399 344.593 420.795C342.035 399.688 330.095 376.622 325.646 355.271C316.452 311.136 303.657 267.949 292.884 224.223C288.992 208.424 279.472 214.037 263.28 213.961C229.256 213.801 194.77 214.154 161.047 208.829C107.284 200.34 54.1807 191.244 0 185.54" stroke="#1e1e1e" stroke-width="7" stroke-linecap="round"/>
<path d="M287.159 220.983C312.466 192.865 336.592 163.681 361.931 135.618C382.901 112.393 407.596 93.0608 429.558 70.8242C452.43 47.666 475.914 25.5479 497.801 1.47266" stroke="#1e1e1e" stroke-width="7" stroke-linecap="round"/>
</g>
<defs>
<clipPath id="clip0_76_48">
<rect width="498" height="446" fill="#1e1e1e"/>
</clipPath>
</defs>
</svg>
